<svg xmlns="http://www.w3.org/2000/svg" viewBox="0 0 1024 1024">
  <!-- Background gradient -->
  <defs>
    <linearGradient id="bgGrad" x1="0%" y1="0%" x2="100%" y2="100%">
      <stop offset="0%" style="stop-color:#1E40AF"/>
      <stop offset="100%" style="stop-color:#3B82F6"/>
    </linearGradient>
    <linearGradient id="docGrad" x1="0%" y1="0%" x2="0%" y2="100%">
      <stop offset="0%" style="stop-color:#FFFFFF"/>
      <stop offset="100%" style="stop-color:#F1F5F9"/>
    </linearGradient>
  </defs>
  
  <!-- Rounded background -->
  <rect width="1024" height="1024" rx="200" fill="url(#bgGrad)"/>
  
  <!-- Document shadow -->
  <rect x="280" y="180" width="500" height="650" rx="30" fill="#1E3A8A" opacity="0.3" transform="translate(15, 15)"/>
  
  <!-- Main document -->
  <rect x="280" y="180" width="500" height="650" rx="30" fill="url(#docGrad)"/>
  
  <!-- Document header line -->
  <rect x="330" y="250" width="300" height="25" rx="12" fill="#3B82F6"/>
  
  <!-- Document lines -->
  <rect x="330" y="320" width="400" height="15" rx="7" fill="#CBD5E1"/>
  <rect x="330" y="360" width="350" height="15" rx="7" fill="#CBD5E1"/>
  <rect x="330" y="400" width="380" height="15" rx="7" fill="#CBD5E1"/>
  
  <!-- Price section -->
  <rect x="330" y="480" width="200" height="15" rx="7" fill="#CBD5E1"/>
  <rect x="580" y="480" width="100" height="15" rx="7" fill="#10B981"/>
  
  <rect x="330" y="520" width="180" height="15" rx="7" fill="#CBD5E1"/>
  <rect x="580" y="520" width="100" height="15" rx="7" fill="#10B981"/>
  
  <!-- Total section -->
  <rect x="330" y="600" width="150" height="20" rx="10" fill="#1E40AF"/>
  <rect x="530" y="600" width="150" height="20" rx="10" fill="#1E40AF"/>
  
  <!-- Checkmark circle -->
  <circle cx="720" cy="720" r="120" fill="#10B981"/>
  <path d="M660 720 L700 760 L780 680" stroke="white" stroke-width="30" fill="none" stroke-linecap="round" stroke-linejoin="round"/>
</svg>
